{
  "accessors": [
    {
      "bufferView": 1,
      "componentType": 5123,
      "type": "SCALAR",
      "count": 1080
    },
    {
      "bufferView": 2,
      "componentType": 5126,
      "type": "VEC3",
      "count": 720,
      "min": [6, 12, 0],
      "max": [16, 16, 14]
    },
    {
      "bufferView": 2,
      "componentType": 5126,
      "type": "VEC3",
      "byteOffset": 12,
      "count": 720
    },
    {
      "bufferView": 2,
      "componentType": 5126,
      "type": "VEC2",
      "byteOffset": 24,
      "count": 720
    },
    {
      "bufferView": 3,
      "componentType": 5123,
      "type": "SCALAR",
      "count": 642
    },
    {
      "bufferView": 4,
      "componentType": 5126,
      "type": "VEC3",
      "count": 428,
      "min": [0, 12, 0],
      "max": [8, 16, 9]
    },
    {
      "bufferView": 4,
      "componentType": 5126,
      "type": "VEC3",
      "byteOffset": 12,
      "count": 428
    },
    {
      "bufferView": 4,
      "componentType": 5126,
      "type": "VEC2",
      "byteOffset": 24,
      "count": 428
    },
    {
      "bufferView": 5,
      "componentType": 5123,
      "type": "SCALAR",
      "count": 2190
    },
    {
      "bufferView": 6,
      "componentType": 5126,
      "type": "VEC3",
      "count": 1460,
      "min": [6, 0, 0],
      "max": [16, 5, 16]
    },
    {
      "bufferView": 6,
      "componentType": 5126,
      "type": "VEC3",
      "byteOffset": 12,
      "count": 1460
    },
    {
      "bufferView": 6,
      "componentType": 5126,
      "type": "VEC2",
      "byteOffset": 24,
      "count": 1460
    },
    {
      "bufferView": 7,
      "componentType": 5123,
      "type": "SCALAR",
      "count": 1524
    },
    {
      "bufferView": 8,
      "componentType": 5126,
      "type": "VEC3",
      "count": 1016,
      "min": [0, 0, 0],
      "max": [8, 5, 16]
    },
    {
      "bufferView": 8,
      "componentType": 5126,
      "type": "VEC3",
      "byteOffset": 12,
      "count": 1016
    },
    {
      "bufferView": 8,
      "componentType": 5126,
      "type": "VEC2",
      "byteOffset": 24,
      "count": 1016
    },
    {
      "bufferView": 9,
      "componentType": 5123,
      "type": "SCALAR",
      "count": 108
    },
    {
      "bufferView": 10,
      "componentType": 5126,
      "type": "VEC3",
      "count": 72,
      "min": [8, 14, 9],
      "max": [9, 16, 14]
    },
    {
      "bufferView": 10,
      "componentType": 5126,
      "type": "VEC3",
      "byteOffset": 12,
      "count": 72
    },
    {
      "bufferView": 10,
      "componentType": 5126,
      "type": "VEC2",
      "byteOffset": 24,
      "count": 72
    },
    {
      "bufferView": 11,
      "componentType": 5123,
      "type": "SCALAR",
      "count": 516
    },
    {
      "bufferView": 12,
      "componentType": 5126,
      "type": "VEC3",
      "count": 344,
      "min": [8, 0, 9],
      "max": [16, 4, 15]
    },
    {
      "bufferView": 12,
      "componentType": 5126,
      "type": "VEC3",
      "byteOffset": 12,
      "count": 344
    },
    {
      "bufferView": 12,
      "componentType": 5126,
      "type": "VEC2",
      "byteOffset": 24,
      "count": 344
    },
    {
      "bufferView": 13,
      "componentType": 5123,
      "type": "SCALAR",
      "count": 204
    },
    {
      "bufferView": 14,
      "componentType": 5126,
      "type": "VEC3",
      "count": 136,
      "min": [0, 3, 11],
      "max": [3, 4, 15]
    },
    {
      "bufferView": 14,
      "componentType": 5126,
      "type": "VEC3",
      "byteOffset": 12,
      "count": 136
    },
    {
      "bufferView": 14,
      "componentType": 5126,
      "type": "VEC2",
      "byteOffset": 24,
      "count": 136
    }
  ],
  "asset": {
    "generator": "goxel",
    "version": "2.0"
  },
  "bufferViews": [
    {
      "buffer": 0,
      "byteLength": 113
    },
    {
      "buffer": 2,
      "byteLength": 2160
    },
    {
      "buffer": 1,
      "byteLength": 23040,
      "byteStride": 32
    },
    {
      "buffer": 4,
      "byteLength": 1284
    },
    {
      "buffer": 3,
      "byteLength": 13696,
      "byteStride": 32
    },
    {
      "buffer": 6,
      "byteLength": 4380
    },
    {
      "buffer": 5,
      "byteLength": 46720,
      "byteStride": 32
    },
    {
      "buffer": 8,
      "byteLength": 3048
    },
    {
      "buffer": 7,
      "byteLength": 32512,
      "byteStride": 32
    },
    {
      "buffer": 10,
      "byteLength": 216
    },
    {
      "buffer": 9,
      "byteLength": 2304,
      "byteStride": 32
    },
    {
      "buffer": 12,
      "byteLength": 1032
    },
    {
      "buffer": 11,
      "byteLength": 11008,
      "byteStride": 32
    },
    {
      "buffer": 14,
      "byteLength": 408
    },
    {
      "buffer": 13,
      "byteLength": 4352,
      "byteStride": 32
    }
  ],
  "buffers": [
    {
      "uri": "data:application/octet-stream;base64,",
      "byteLength": 113
    },
    {
      "uri": "data:application/octet-stream;base64,",
      "byteLength": 23040
    },
    {
      "uri": "data:application/octet-stream;base64,",
      "byteLength": 2160
    },
    {
      "uri": "data:application/octet-stream;base64,",
      "byteLength": 13696
    },
    {
      "uri": "data:application/octet-stream;base64,",
      "byteLength": 1284
    },
    {
      "uri": "data:application/octet-stream;base64,",
      "byteLength": 46720
    },
    {
      "uri": "data:application/octet-stream;base64,",
      "byteLength": 4380
    },
    {
      "uri": "data:application/octet-stream;base64,",
      "byteLength": 32512
    },
    {
      "uri": "data:application/octet-stream;base64,",
      "byteLength": 3048
    },
    {
      "uri": "data:application/octet-stream;base64,",
      "byteLength": 2304
    },
    {
      "uri": "data:application/octet-stream;base64,",
      "byteLength": 216
    },
    {
      "uri": "data:application/octet-stream;base64,",
      "byteLength": 11008
    },
    {
      "uri": "data:application/octet-stream;base64,",
      "byteLength": 1032
    },
    {
      "uri": "data:application/octet-stream;base64,",
      "byteLength": 4352
    },
    {
      "uri": "data:application/octet-stream;base64,",
      "byteLength": 408
    }
  ],
  "images": [
    {
      "bufferView": 0,
      "mimeType": "image/png"
    }
  ],
  "meshes": [
    {
      "primitives": [
        {
          "indices": 0,
          "material": 0,
          "attributes": {
            "POSITION": 1,
            "NORMAL": 2,
            "TEXCOORD_0": 3
          }
        }
      ]
    },
    {
      "primitives": [
        {
          "indices": 4,
          "material": 0,
          "attributes": {
            "POSITION": 5,
            "NORMAL": 6,
            "TEXCOORD_0": 7
          }
        }
      ]
    },
    {
      "primitives": [
        {
          "indices": 8,
          "material": 0,
          "attributes": {
            "POSITION": 9,
            "NORMAL": 10,
            "TEXCOORD_0": 11
          }
        }
      ]
    },
    {
      "primitives": [
        {
          "indices": 12,
          "material": 0,
          "attributes": {
            "POSITION": 13,
            "NORMAL": 14,
            "TEXCOORD_0": 15
          }
        }
      ]
    },
    {
      "primitives": [
        {
          "indices": 16,
          "material": 1,
          "attributes": {
            "POSITION": 17,
            "NORMAL": 18,
            "TEXCOORD_0": 19
          }
        }
      ]
    },
    {
      "primitives": [
        {
          "indices": 20,
          "material": 1,
          "attributes": {
            "POSITION": 21,
            "NORMAL": 22,
            "TEXCOORD_0": 23
          }
        }
      ]
    },
    {
      "primitives": [
        {
          "indices": 24,
          "material": 1,
          "attributes": {
            "POSITION": 25,
            "NORMAL": 26,
            "TEXCOORD_0": 27
          }
        }
      ]
    }
  ],
  "materials": [
    {
      "name": "Material.1",
      "pbrMetallicRoughness": {
        "baseColorTexture": {
          "index": 0
        },
        "metallicFactor": 0.200000003,
        "roughnessFactor": 0.5
      }
    },
    {
      "name": "Material.2",
      "pbrMetallicRoughness": {
        "baseColorTexture": {
          "index": 0
        },
        "metallicFactor": 0.200000003,
        "roughnessFactor": 0.5
      },
      "emissiveFactor": [0.700000048, 0.700000048, 0.700000048]
    }
  ],
  "nodes": [
    {
      "children": [ 5, 9 ],
      "matrix": [1, 0, 0, 0, 0, 0, -1, 0, 0, 1, 0, 0, 0, 0, 0, 1]
    },
    {
      "mesh": 0,
      "translation": [-16, -16, 0]
    },
    {
      "mesh": 1,
      "translation": [0, -16, 0]
    },
    {
      "mesh": 2,
      "translation": [-16, 0, 0]
    },
    {
      "mesh": 3,
      "translation": [0, 0, 0]
    },
    {
      "children": [ 1, 2, 3, 4 ]
    },
    {
      "mesh": 4,
      "translation": [-16, -16, 0]
    },
    {
      "mesh": 5,
      "translation": [-16, 0, 0]
    },
    {
      "mesh": 6,
      "translation": [0, 0, 0]
    },
    {
      "children": [ 6, 7, 8 ]
    }
  ],
  "scenes": [
    {
      "nodes": [ 0 ]
    }
  ],
  "textures": [
    {
      "source": 0
    }
  ]
}
